<svg width="144" height="60" viewBox="0 0 144 60" fill="none" xmlns="http://www.w3.org/2000/svg">
<g clip-path="url(#clip0_2_2057)">
<path d="M71.4483 46.665C71.4757 47.5597 71.5616 48.4571 71.5196 49.3482C71.4109 51.6758 70.5929 53.7046 68.8127 55.2792C67.5772 56.3694 66.1132 57.0064 64.5285 57.3874C62.6679 57.8362 60.778 57.9029 58.8808 57.7649C53.5795 57.382 48.608 55.7525 43.7737 53.658C36.4299 50.4777 29.7184 46.252 23.5023 41.2294C18.7273 37.371 14.3691 33.0914 10.5821 28.2488C8.15756 25.1471 6.02002 21.8645 4.47285 18.2255C3.64945 16.2863 3.02437 14.2895 2.80596 12.1839C2.61222 10.316 2.74838 8.48645 3.56172 6.76198C4.67664 4.39963 6.63323 3.06173 9.06594 2.33978C11.0353 1.75399 13.0568 1.62971 15.0984 1.74942C20.3385 2.05648 25.2587 3.61188 30.0502 5.6361C35.9291 8.12181 41.3848 11.356 46.5582 15.0791C46.6213 15.1248 46.6789 15.1796 46.7063 15.2829C46.5518 15.1805 46.3965 15.0809 46.2439 14.9776C41.6672 11.8833 36.8649 9.20657 31.7207 7.16774C28.7351 5.98428 25.6791 5.0366 22.498 4.54677C19.9556 4.15655 17.4095 4.03226 14.8928 4.72771C12.9791 5.25684 11.3799 6.24382 10.37 8.02129C9.65539 9.27877 9.42326 10.6477 9.45982 12.0743C9.51922 14.3982 10.2211 16.5595 11.1605 18.6532C12.7223 22.136 14.8653 25.2532 17.2871 28.1821C22.7246 34.7592 29.1847 40.172 36.3275 44.7962C40.7726 47.674 45.4397 50.1231 50.423 51.9445C53.0942 52.9214 55.8221 53.6954 58.6469 54.0829C61.0915 54.4183 63.537 54.5088 65.9468 53.8334C67.9875 53.2613 69.6489 52.1875 70.6057 50.2163C71.0828 49.2358 71.2655 48.1848 71.314 47.1037C71.3195 46.9794 71.3231 46.8533 71.3304 46.7281C71.3313 46.708 71.346 46.6879 71.3542 46.6678C71.3853 46.6669 71.4172 46.666 71.4483 46.665Z" fill="#FBB040"/>
<path d="M77.1179 44.5853C76.7515 44.1493 76.5678 43.5069 76.5678 42.6561V33.0029C76.5678 32.7845 76.746 32.6081 76.9635 32.6081H78.0885C78.3069 32.6081 78.4842 32.7845 78.4842 33.0029V42.6734C78.4842 42.912 78.5317 43.0947 78.6249 43.2236C78.7199 43.3515 78.8561 43.4164 79.0389 43.4164H79.5634C79.7828 43.4164 79.9573 43.5928 79.9573 43.8112V44.8411C79.9573 45.0614 79.7828 45.2378 79.5634 45.2378H78.8506C78.062 45.2378 77.4844 45.0203 77.1179 44.5853ZM75.9582 35.4429H79.5634C79.7828 35.4429 79.9573 35.6202 79.9573 35.8386V36.7763C79.9573 36.9938 79.7828 37.172 79.5634 37.172H75.9582C75.7417 37.172 75.5644 36.9938 75.5644 36.7763V35.8386C75.5644 35.6202 75.7417 35.4429 75.9582 35.4429Z" fill="#FBB040"/>
<path d="M84.2691 44.8245C83.6312 44.4864 83.1432 43.9902 82.8078 43.3358C82.4734 42.6815 82.3061 41.8919 82.3061 40.9653V39.8659C82.3061 38.9027 82.467 38.0793 82.7896 37.3966C83.1122 36.7149 83.5801 36.1949 84.1942 35.8385C84.8074 35.4812 85.5458 35.302 86.4094 35.302C87.2227 35.302 87.9182 35.5058 88.4948 35.9125C89.0706 36.3192 89.5101 36.9086 89.8135 37.679C90.117 38.4476 90.2687 39.3715 90.2687 40.4489V40.692C90.2687 40.9104 90.0932 41.0868 89.8739 41.0868H84.0909C83.8725 41.0868 83.6961 40.9104 83.6961 40.692V39.9417C83.6961 39.7242 83.8725 39.5469 84.0909 39.5469H88.0041C88.2454 39.5469 88.4345 39.3322 88.3961 39.0937C88.3038 38.5143 88.1156 38.0455 87.8314 37.6918C87.4795 37.2513 87.0043 37.0302 86.4094 37.0302C85.6838 37.0302 85.1218 37.2678 84.7251 37.7439C84.3258 38.2191 84.1284 38.8935 84.1284 39.7635V41.0027C84.1284 41.8097 84.3395 42.4293 84.7672 42.8625C85.1921 43.2938 85.7962 43.5095 86.5785 43.5095C86.9659 43.5095 87.3516 43.4318 87.7336 43.2755C88.0077 43.1631 88.2591 43.0187 88.4912 42.8423C88.6502 42.7217 88.8723 42.7318 89.013 42.8743L89.7185 43.5789C89.8839 43.7434 89.872 44.0167 89.6911 44.1647C89.2945 44.491 88.8604 44.7532 88.3916 44.9506C87.7902 45.2047 87.1853 45.3317 86.5785 45.3317C85.6774 45.3317 84.9061 45.1627 84.2691 44.8245Z" fill="#FBB040"/>
<path d="M94.8144 42.6736C94.8144 42.9122 94.8656 43.0949 94.9697 43.2238C95.0712 43.3517 95.2174 43.4157 95.4057 43.4157H95.911C96.1294 43.4157 96.3076 43.593 96.3076 43.8105V44.8422C96.3076 45.0598 96.1294 45.238 95.911 45.238H95.1799C94.4534 45.238 93.8914 45.0122 93.4957 44.5608C93.0963 44.1102 92.898 43.4751 92.898 42.6545V31.933C92.898 31.7146 93.0753 31.5364 93.2937 31.5364H94.4187C94.6371 31.5364 94.8144 31.7146 94.8144 31.933V42.6736Z" fill="#FBB040"/>
<path d="M100.148 44.8245C99.5097 44.4864 99.0226 43.9902 98.6863 43.3358C98.3527 42.6815 98.1855 41.8919 98.1855 40.9653V39.8659C98.1855 38.9027 98.3454 38.0793 98.6689 37.3966C98.9906 36.7149 99.4594 36.1949 100.073 35.8385C100.687 35.4812 101.424 35.302 102.289 35.302C103.101 35.302 103.797 35.5058 104.373 35.9125C104.949 36.3192 105.389 36.9086 105.692 37.679C105.995 38.4476 106.148 39.3715 106.148 40.4489V40.692C106.148 40.9104 105.971 41.0868 105.752 41.0868H99.9703C99.751 41.0868 99.5746 40.9104 99.5746 40.692V39.9417C99.5746 39.7242 99.751 39.5469 99.9703 39.5469H103.883C104.124 39.5469 104.313 39.3322 104.275 39.0937C104.182 38.5143 103.995 38.0455 103.71 37.6918C103.358 37.2513 102.883 37.0302 102.289 37.0302C101.562 37.0302 101 37.2678 100.604 37.7439C100.204 38.2191 100.007 38.8935 100.007 39.7635V41.0027C100.007 41.8097 100.219 42.4293 100.645 42.8625C101.071 43.2938 101.675 43.5095 102.457 43.5095C102.845 43.5095 103.231 43.4318 103.613 43.2755C103.886 43.1631 104.138 43.0187 104.371 42.8423C104.529 42.7217 104.751 42.7318 104.891 42.8743L105.598 43.5789C105.761 43.7434 105.75 44.0167 105.57 44.1647C105.173 44.491 104.739 44.7532 104.27 44.9506C103.669 45.2047 103.064 45.3317 102.457 45.3317C101.557 45.3317 100.785 45.1627 100.148 44.8245Z" fill="#FBB040"/>
<path d="M110.435 44.8331C109.805 44.5014 109.324 44.0188 108.993 43.3874C108.661 42.7559 108.495 41.9919 108.495 41.0954V39.4906C108.495 38.6078 108.661 37.853 108.993 37.227C109.324 36.601 109.805 36.1239 110.435 35.7959C111.063 35.466 111.823 35.3024 112.711 35.3024C113.218 35.3024 113.695 35.3636 114.143 35.4852C114.591 35.6076 114.994 35.7849 115.35 36.0161C115.593 36.1733 115.808 36.3542 115.997 36.558C116.143 36.717 116.123 36.9693 115.962 37.1128L115.14 37.8493C114.989 37.9864 114.761 37.9809 114.607 37.8457C114.394 37.6538 114.157 37.4975 113.895 37.3778C113.525 37.2078 113.141 37.1237 112.739 37.1237C112.001 37.1237 111.429 37.3312 111.021 37.7442C110.615 38.1564 110.411 38.7385 110.411 39.4906V41.0954C110.411 41.8658 110.612 42.4607 111.017 42.8793C111.42 43.2996 111.995 43.5098 112.739 43.5098C113.146 43.5098 113.535 43.4184 113.904 43.2366C114.16 43.1114 114.391 42.9496 114.598 42.7531C114.755 42.6051 114.997 42.5978 115.152 42.7477L115.975 43.5436C116.129 43.6917 116.142 43.9384 115.996 44.0929C115.804 44.2948 115.585 44.474 115.341 44.6311C114.984 44.8605 114.582 45.0342 114.134 45.153C113.686 45.2708 113.212 45.3312 112.711 45.3312C111.823 45.3312 111.063 45.1648 110.435 44.8331Z" fill="#FBB040"/>
<path d="M123.647 42.8793C124.012 42.4598 124.196 41.8713 124.196 41.1137V39.4989C124.196 38.7413 124.012 38.1564 123.647 37.7433C123.28 37.3303 122.762 37.1228 122.092 37.1228C121.421 37.1228 120.905 37.3303 120.539 37.7433C120.172 38.1564 119.989 38.7413 119.989 39.4989V41.1137C119.989 41.8713 120.172 42.4598 120.539 42.8793C120.905 43.2987 121.421 43.508 122.092 43.508C122.762 43.508 123.28 43.2987 123.647 42.8793ZM119.923 44.8331C119.323 44.5005 118.864 44.017 118.548 43.3819C118.232 42.7458 118.073 41.9809 118.073 41.0853V39.4989C118.073 38.6161 118.232 37.8603 118.548 37.2306C118.864 36.6019 119.323 36.1221 119.923 35.794C120.525 35.466 121.248 35.3015 122.092 35.3015C122.937 35.3015 123.661 35.466 124.262 35.794C124.863 36.1221 125.322 36.6019 125.637 37.2306C125.952 37.8603 126.111 38.6161 126.111 39.4989V41.1137C126.111 42.0019 125.952 42.7614 125.637 43.391C125.322 44.0198 124.863 44.5005 124.262 44.8331C123.661 45.1639 122.937 45.3302 122.092 45.3302C121.248 45.3302 120.525 45.1639 119.923 44.8331Z" fill="#FBB040"/>
<path d="M140.478 39.2836C140.478 38.5945 140.3 38.0626 139.944 37.687C139.585 37.3123 139.085 37.1241 138.44 37.1241C137.846 37.1241 137.386 37.305 137.06 37.6678C137.024 37.709 136.99 37.751 136.957 37.7949C136.754 38.0745 136.324 37.9996 136.255 37.6605L136.215 37.4659C136.196 37.3781 136.208 37.284 136.249 37.2063C136.547 36.6206 136.932 36.1636 137.403 35.8328C137.908 35.4791 138.462 35.3028 139.07 35.3028C139.771 35.3028 140.371 35.4572 140.868 35.7661C141.366 36.0768 141.745 36.5283 142.004 37.1241C142.264 37.7181 142.394 38.4355 142.394 39.2735V44.7942C142.394 45.0135 142.216 45.1899 141.999 45.1899H140.873C140.655 45.1899 140.478 45.0135 140.478 44.7942V39.2836ZM134.656 39.2836C134.656 38.5945 134.487 38.0626 134.15 37.687C133.812 37.3123 133.333 37.1241 132.713 37.1241C132.086 37.1241 131.603 37.2895 131.262 37.6222C131.258 37.6249 131.255 37.6276 131.252 37.6313C131.014 37.8662 130.616 37.74 130.581 37.4074L130.566 37.2648C130.557 37.1853 130.573 37.1031 130.611 37.0327C130.903 36.4972 131.277 36.0805 131.732 35.7816C132.217 35.4618 132.753 35.3028 133.341 35.3028C134.025 35.3028 134.607 35.4572 135.088 35.7661C135.57 36.0768 135.938 36.5283 136.192 37.1241C136.445 37.7181 136.572 38.4355 136.572 39.2735V44.7942C136.572 45.0135 136.395 45.1899 136.177 45.1899H135.052C134.834 45.1899 134.656 45.0135 134.656 44.7942V39.2836ZM129.229 35.4435H130.355C130.573 35.4435 130.749 35.6199 130.749 35.8374V44.7942C130.749 45.0135 130.573 45.1899 130.355 45.1899H129.229C129.012 45.1899 128.835 45.0135 128.835 44.7942V35.8374C128.835 35.6199 129.012 35.4435 129.229 35.4435Z" fill="#FBB040"/>
<path d="M68.5505 29.8523C68.0936 31.3647 67.1715 32.1771 65.7285 32.1561C64.1777 32.1333 62.6269 32.1506 61.0459 32.1506V24.4842C62.3655 24.4842 63.665 24.4806 64.9636 24.487C65.4306 24.4897 65.9049 24.4723 66.3628 24.5464C67.6586 24.7575 68.3723 25.7463 68.662 27.0933C68.8576 28.0053 68.8201 28.9594 68.5505 29.8523ZM75.3726 26.2142C75.0189 24.2366 74.1754 22.4847 72.7534 21.0453C70.9202 19.1893 68.6419 18.3842 66.0776 18.3668C64.482 18.3549 62.8864 18.354 61.2908 18.3549C61.2871 20.3846 57.373 24.4623 54.1727 24.4659V45.1668H55.8131C58.689 45.1668 61.0194 42.8365 61.0194 39.9605V38.3348C61.5165 38.3348 61.9808 38.343 62.4432 38.3329C64.1192 38.301 65.8062 38.3686 67.4676 38.2004C70.1535 37.929 72.302 36.6231 73.8089 34.3668C75.4694 31.8792 75.8926 29.1239 75.3726 26.2142Z" fill="white"/>
<path d="M37.0443 18.35C37.0443 21.6691 34.5531 24.3815 31.2075 24.4628V24.4911H36.8241V24.9106C36.825 27.262 36.825 29.6125 36.825 31.9629C36.825 36.0945 36.8241 38.2978 36.8277 42.4294C36.8277 42.4724 36.8287 42.5839 36.8332 42.7127C37.408 43.103 37.9865 43.4895 38.5732 43.8679C39.2541 44.3083 39.9431 44.736 40.6358 45.1564C41.4336 45.1537 42.0048 45.1592 43.1956 45.1582H43.6095V24.4637H53.2755C56.475 24.461 60.3881 20.3824 60.3927 18.3527L60.3936 18.35H37.0443Z" fill="white"/>
<path d="M36.1469 18.3516H12.7099C12.7319 18.4183 12.7383 18.4613 12.7574 18.4997C13.7298 20.5586 14.9251 22.485 16.2539 24.3292C16.317 24.417 16.4778 24.469 16.5975 24.4754C16.9594 24.4946 17.3213 24.4818 17.6649 24.4818C17.6932 24.5394 17.7115 24.5586 17.7115 24.5778C17.717 25.0229 17.7362 25.4688 17.717 25.912C17.7033 26.1953 17.7974 26.4083 17.9701 26.6249C19.9075 29.0274 22.003 31.2828 24.2411 33.4076C24.3087 33.4706 24.3864 33.5236 24.5171 33.6269V24.4727H30.1547C30.2077 24.4727 30.2571 24.4663 30.3101 24.4645C33.6548 24.3831 36.1469 21.6708 36.1469 18.3516Z" fill="white"/>
<path d="M15.715 0.171676C15.4317 0.171676 15.1475 0.182644 14.8642 0.16985C12.2149 0.0528748 9.614 0.28317 7.16118 1.37433C3.76982 2.88312 1.87629 5.52602 1.3956 9.19063C1.02822 11.9953 1.56192 14.6894 2.46208 17.3259C3.72413 21.0197 5.67797 24.3462 7.9535 27.4926C10.8569 31.5045 14.229 35.0933 17.8881 38.417C22.7006 42.7853 27.8621 46.6912 33.4285 50.0514C38.6996 53.2335 44.2148 55.8874 50.1394 57.6283C53.5673 58.6363 57.0546 59.3107 60.6425 59.2934C63.1629 59.2824 65.6285 58.9351 67.9123 57.7827C70.7946 56.3279 72.4451 53.9747 72.9102 50.7917C73.0071 50.1291 73.0409 49.4583 73.0976 48.8451C73.2319 51.4963 72.7311 54.0176 70.929 56.1488C69.5554 57.7736 67.7542 58.7213 65.7419 59.297C63.5139 59.9349 61.2319 60.0857 58.9272 59.9587C52.8966 59.6251 47.2461 57.8284 41.7602 55.4341C35.7095 52.793 30.1065 49.3852 24.8308 45.4318C24.6069 45.2646 24.3894 45.1933 24.1116 45.1942C22.1267 45.2043 20.139 45.1988 18.1532 45.1988H17.7227V44.7803C17.7227 43.2852 17.6981 41.7892 17.7374 40.295C17.7511 39.786 17.5793 39.4634 17.2137 39.1326C13.9887 36.2192 10.9866 33.0937 8.30351 29.6722C5.68803 26.3366 3.40336 22.8027 1.79039 18.8639C0.903934 16.6999 0.251433 14.471 0.0595215 12.1333C-0.143357 9.66493 0.135373 7.27516 1.43763 5.10016C2.73807 2.92699 4.6974 1.60279 7.06065 0.827835C9.3371 0.0821197 11.6839 -0.0796367 14.059 0.031855C14.6119 0.0574433 15.1639 0.113192 15.7177 0.153402C15.7168 0.159799 15.7159 0.166193 15.715 0.171676Z" fill="white"/>
<path d="M76.8129 52.0426V48.9272H77.3776V50.2496H78.7055V48.9272H79.2693V52.0426H78.7055V50.8235H77.3776V52.0426H76.8129Z" fill="#E0E0E0" fill-opacity="0.88"/>
<path d="M81.1733 52.5538C81.1733 52.7247 81.039 52.8654 80.858 52.8654C80.688 52.8654 80.5473 52.7247 80.5473 52.5538C80.5473 52.3738 80.688 52.2303 80.858 52.2303C81.039 52.2303 81.1733 52.3738 81.1733 52.5538ZM81.4054 50.9984C81.4054 50.6484 81.1596 50.4062 80.8617 50.4062C80.5473 50.4062 80.3188 50.6484 80.3188 50.9984C80.3188 51.3137 80.5473 51.5677 80.8617 51.5677C81.1596 51.5677 81.4054 51.3137 81.4054 50.9984ZM80.8617 49.8853C81.0737 49.8853 81.2519 49.9429 81.4155 50.0297C81.537 50.0343 81.6686 50.0078 81.7253 49.9337C81.7646 49.8807 81.7819 49.7619 81.7819 49.5828H82.2206C82.2334 49.9383 82.1466 50.2572 81.7472 50.3495C81.8706 50.5378 81.94 50.7526 81.94 50.9984C81.94 51.6253 81.4365 52.0895 80.8617 52.0895C80.2878 52.0895 79.7842 51.6253 79.7842 50.9984C79.7842 50.3633 80.253 49.8853 80.8617 49.8853Z" fill="#E0E0E0" fill-opacity="0.88"/>
<path d="M83.6105 51.548C83.9093 51.548 84.1277 51.3415 84.1277 50.9777C84.1277 50.6104 83.9093 50.391 83.6105 50.391C83.318 50.391 83.0859 50.6104 83.0859 50.9777C83.0859 51.3415 83.318 51.548 83.6105 51.548ZM83.0238 49.9304L83.0722 50.1717C83.2257 49.9962 83.4368 49.8784 83.7293 49.8784C84.2465 49.8784 84.676 50.3079 84.676 50.9741C84.676 51.6092 84.2465 52.0817 83.743 52.0817C83.4487 52.0817 83.2294 51.9592 83.0759 51.7801V53.1125H82.5641V49.9304H83.0238Z" fill="#E0E0E0" fill-opacity="0.88"/>
<path d="M86.3951 49.5018V48.9279H88.889V49.5018H87.9377V52.0387H87.3647V49.5018H86.3951Z" fill="#E0E0E0" fill-opacity="0.88"/>
<path d="M90.4502 48.9265H90.9757L90.4593 49.6183H90.0865L90.4502 48.9265ZM90.8221 50.9763C90.8221 50.6089 90.5909 50.3905 90.2967 50.3905C89.9988 50.3905 89.7758 50.6089 89.7758 50.9763C89.7758 51.3409 89.9988 51.5465 90.2967 51.5465C90.5909 51.5465 90.8221 51.3409 90.8221 50.9763ZM90.1751 49.8769C90.4676 49.8769 90.6778 49.9911 90.8221 50.162L90.8715 49.9299H91.3494V52.0419H90.8715L90.8221 51.8088V51.7832C90.6778 51.9623 90.4593 52.0812 90.1651 52.0812C89.6579 52.0812 89.232 51.6087 89.232 50.9726C89.232 50.3064 89.6615 49.8769 90.1751 49.8769Z" fill="#E0E0E0" fill-opacity="0.88"/>
<path d="M92.9152 49.8769C93.2515 49.8769 93.5412 50.0167 93.7468 50.2452L93.4672 50.64C93.3256 50.512 93.1775 50.4289 92.9006 50.4289C92.7471 50.4289 92.6173 50.4819 92.5159 50.5824C92.4144 50.6829 92.3623 50.8145 92.3623 50.9772C92.3623 51.3628 92.6959 51.52 92.896 51.52C93.1949 51.52 93.3831 51.3976 93.4891 51.3135L93.7596 51.7046C93.628 51.8362 93.3749 52.0811 92.8878 52.0811C92.3011 52.0811 91.8104 51.6087 91.8104 50.99C91.8104 50.2881 92.3267 49.8769 92.9152 49.8769Z" fill="#E0E0E0" fill-opacity="0.88"/>
<path d="M97.4986 50.6625H95.7421V51.0527H97.4986V50.6625Z" fill="#E0E0E0" fill-opacity="0.88"/>
<path d="M100.223 48.9265V50.1703C100.223 50.5212 100.223 50.7094 100.241 50.8145C100.258 51.0211 100.337 51.1828 100.472 51.3016C100.609 51.4204 100.771 51.4762 100.964 51.4762C101.352 51.4762 101.651 51.2303 101.687 50.8237C101.698 50.7487 101.698 50.618 101.698 50.4773V48.9265H102.273V50.3192C102.273 50.5166 102.269 50.7442 102.26 50.8767C102.204 51.595 101.669 52.0812 100.967 52.0812C100.288 52.0812 99.7227 51.6041 99.666 50.8886C99.6486 50.7716 99.6486 50.5742 99.6486 50.3814V48.9265H100.223Z" fill="#E0E0E0" fill-opacity="0.88"/>
<path d="M102.713 49.8997H103.287L103.891 51.2623L104.501 49.8997H105.079L103.646 53.112H103.068L103.607 51.9066L102.713 49.8997Z" fill="#E0E0E0" fill-opacity="0.88"/>
<path d="M106.734 49.5018V48.9279H109.228V49.5018H108.275V52.0387H107.702V49.5018H106.734Z" fill="#E0E0E0" fill-opacity="0.88"/>
<path d="M110.262 52.0415H109.714V49.8985H110.262V52.0415ZM109.671 49.6179L110.03 48.9261H110.555L110.043 49.6179H109.671Z" fill="#E0E0E0" fill-opacity="0.88"/>
<path d="M111.327 49.9261L111.38 50.1847V50.2377C111.55 49.9919 111.793 49.8822 112.037 49.8822C112.472 49.8822 112.759 50.128 112.866 50.4214C112.949 50.6489 112.949 50.8682 112.949 51.1835V52.0417H112.428V51.3279C112.428 50.9998 112.418 50.8509 112.387 50.7412C112.336 50.5091 112.169 50.3464 111.901 50.3601C111.467 50.3729 111.393 50.7065 111.38 51.0611V52.0417H110.846V49.9261H111.327Z" fill="#E0E0E0" fill-opacity="0.88"/>
<path d="M116.772 50.6625H115.015V51.0527H116.772V50.6625Z" fill="#E0E0E0" fill-opacity="0.88"/>
<path d="M120.402 48.879C120.923 48.879 121.314 49.0617 121.642 49.3953L121.322 49.8513C121.151 49.6941 120.902 49.4529 120.396 49.4529C119.85 49.4529 119.376 49.8906 119.376 50.4691C119.376 51.0302 119.767 51.4945 120.358 51.5072H120.392C120.883 51.5072 121.169 51.2267 121.371 50.9991L121.713 51.489C121.387 51.8847 120.941 52.0812 120.372 52.0812H120.358C119.456 52.0812 118.798 51.3729 118.798 50.4819C118.798 49.5808 119.49 48.879 120.402 48.879Z" fill="#E0E0E0" fill-opacity="0.88"/>
<path d="M122.201 48.9263H122.735V50.2441C122.905 49.9955 123.151 49.8813 123.396 49.8813C123.821 49.8813 124.12 50.1262 124.224 50.4205C124.299 50.648 124.308 50.8674 124.308 51.1826V52.0417H123.785V51.327C123.785 50.9989 123.778 50.8491 123.746 50.7394C123.694 50.5073 123.528 50.3464 123.26 50.3583C123.002 50.3629 122.83 50.5073 122.779 50.7358C122.744 50.8536 122.735 50.9989 122.735 51.327V52.0417H122.201V48.9263Z" fill="#E0E0E0" fill-opacity="0.88"/>
<path d="M126.75 48.5247H127.275L126.76 49.2129H126.387L126.75 48.5247ZM125.813 51.5487C126.105 51.5487 126.337 51.3422 126.337 50.9794C126.337 50.6102 126.105 50.3918 125.813 50.3918C125.514 50.3918 125.29 50.6102 125.29 50.9794C125.29 51.3422 125.514 51.5487 125.813 51.5487ZM125.68 49.0109H126.022L126.56 49.6424L126.259 49.7521L125.848 49.3874L125.457 49.7566L125.146 49.6287L125.68 49.0109ZM125.689 49.8782C125.982 49.8782 126.194 49.9924 126.337 50.1633L126.387 49.9312H126.863V52.0431H126.387L126.337 51.811V51.7845C126.194 51.9645 125.974 52.0833 125.68 52.0833C125.172 52.0833 124.747 51.609 124.747 50.9748C124.747 50.3077 125.176 49.8782 125.689 49.8782Z" fill="#E0E0E0" fill-opacity="0.88"/>
<path d="M127.544 49.8992V49.2193H128.083V49.8992H128.679V50.4247H128.083V51.0424C128.083 51.3586 128.092 51.4985 128.215 51.5469C128.271 51.5679 128.36 51.5515 128.486 51.4985L128.748 51.8704C128.56 52.0239 128.35 52.0724 128.174 52.0724C127.899 52.0724 127.724 51.928 127.64 51.748C127.558 51.5944 127.544 51.4455 127.544 51.1384V50.4201H127.277V49.8992H127.544Z" fill="#E0E0E0" fill-opacity="0.88"/>
<path d="M130.622 52.0426V48.9272H131.174V51.486H132.134L132.515 52.0426H130.622Z" fill="#E0E0E0" fill-opacity="0.88"/>
<path d="M132.883 49.9007H133.418V50.724C133.418 50.8511 133.418 51.0969 133.432 51.1792C133.454 51.3647 133.571 51.5694 133.874 51.5694C134.19 51.5694 134.295 51.3647 134.316 51.1837C134.329 51.1051 134.329 50.8118 134.329 50.6838V49.9007H134.707C134.8 49.8915 134.865 49.8604 134.908 49.8074C134.948 49.7563 134.965 49.6375 134.965 49.4583H135.404C135.416 49.8349 135.324 50.1584 134.865 50.2424V50.6838C134.865 50.8301 134.868 51.0923 134.855 51.2102C134.794 51.8015 134.399 52.0958 133.874 52.0958C133.353 52.0958 132.945 51.8015 132.897 51.2066C132.883 51.0878 132.883 50.8374 132.883 50.724V49.9007Z" fill="#E0E0E0" fill-opacity="0.88"/>
<path d="M137.065 52.5538C137.065 52.7247 136.93 52.8654 136.75 52.8654C136.579 52.8654 136.439 52.7247 136.439 52.5538C136.439 52.3738 136.579 52.2303 136.75 52.2303C136.93 52.2303 137.065 52.3738 137.065 52.5538ZM137.299 50.9984C137.299 50.6484 137.053 50.4062 136.754 50.4062C136.439 50.4062 136.211 50.6484 136.211 50.9984C136.211 51.3137 136.439 51.5677 136.754 51.5677C137.053 51.5677 137.299 51.3137 137.299 50.9984ZM136.754 49.8853C136.966 49.8853 137.144 49.9429 137.308 50.0297C137.429 50.0343 137.561 50.0078 137.617 49.9337C137.658 49.8807 137.674 49.7619 137.674 49.5828H138.113C138.126 49.9383 138.039 50.2572 137.64 50.3495C137.762 50.5378 137.832 50.7526 137.832 50.9984C137.832 51.6253 137.329 52.0895 136.754 52.0895C136.181 52.0895 135.676 51.6253 135.676 50.9984C135.676 50.3633 136.146 49.8853 136.754 49.8853Z" fill="#E0E0E0" fill-opacity="0.88"/>
<path d="M138.912 49.9261L138.965 50.1847V50.2377C139.135 49.9919 139.377 49.8822 139.621 49.8822C140.056 49.8822 140.344 50.128 140.45 50.4214C140.533 50.6489 140.533 50.8682 140.533 51.1835V52.0417H140.012V51.3279C140.012 50.9998 140.002 50.8509 139.972 50.7412C139.92 50.5091 139.754 50.3464 139.486 50.3601C139.052 50.3729 138.978 50.7065 138.965 51.0611V52.0417H138.43V49.9261H138.912Z" fill="#E0E0E0" fill-opacity="0.88"/>
<path d="M142.541 50.9777C142.541 50.6104 142.308 50.391 142.016 50.391C141.717 50.391 141.493 50.6104 141.493 50.9777C141.493 51.3415 141.717 51.548 142.016 51.548C142.308 51.548 142.541 51.3415 142.541 50.9777ZM141.893 49.8784C142.186 49.8784 142.387 49.9926 142.541 50.1626V50.1543L142.589 49.9304H143.067V51.6403C143.067 51.951 143.053 52.2096 143.006 52.3851C142.923 52.7616 142.603 53.1125 142.007 53.1125C141.647 53.1125 141.279 52.9325 141.073 52.7269L141.353 52.3367C141.533 52.482 141.756 52.5953 141.984 52.5953C142.23 52.5953 142.405 52.4683 142.493 52.2361C142.514 52.1658 142.532 51.9994 142.537 51.7893C142.382 51.9638 142.177 52.0826 141.884 52.0826C141.38 52.0826 140.946 51.6092 140.946 50.9741C140.946 50.3079 141.384 49.8784 141.893 49.8784Z" fill="#E0E0E0" fill-opacity="0.88"/>
</g>
<defs>
<clipPath id="clip0_2_2057">
<rect width="143.221" height="60" fill="white"/>
</clipPath>
</defs>
</svg>
